G75*
%MOIN*%
%OFA0B0*%
%FSLAX25Y25*%
%IPPOS*%
%LPD*%
%AMOC8*
5,1,8,0,0,1.08239X$1,22.5*
%
%ADD10C,0.08200*%
%ADD11C,0.07300*%
%ADD12R,0.07300X0.07300*%
%ADD13R,0.08200X0.08200*%
%ADD14C,0.05600*%
%ADD15C,0.06800*%
%ADD16C,0.10800*%
D10*
X0118333Y0135659D03*
X0118333Y0145659D03*
X0118333Y0155659D03*
X0138333Y0155659D03*
X0138333Y0145659D03*
X0138333Y0135659D03*
X0128333Y0180659D03*
X0133333Y0203159D03*
X0143333Y0203159D03*
X0153333Y0203159D03*
X0163333Y0203159D03*
X0173333Y0203159D03*
X0178333Y0180659D03*
X0303333Y0240659D03*
X0303333Y0280659D03*
X0173333Y0283159D03*
X0163333Y0283159D03*
X0153333Y0283159D03*
X0143333Y0283159D03*
X0133333Y0283159D03*
X0223333Y0030659D03*
X0233333Y0030659D03*
X0243333Y0030659D03*
X0268333Y0030659D03*
X0278333Y0030659D03*
X0288333Y0030659D03*
D11*
X0288333Y0020659D03*
X0298333Y0020659D03*
X0298333Y0050659D03*
X0288333Y0050659D03*
X0278333Y0050659D03*
X0268333Y0050659D03*
X0258333Y0050659D03*
X0248333Y0050659D03*
X0238333Y0050659D03*
X0228333Y0050659D03*
X0218333Y0050659D03*
X0208333Y0050659D03*
X0198333Y0050659D03*
X0188333Y0050659D03*
X0178333Y0050659D03*
X0178333Y0060659D03*
X0178333Y0070659D03*
X0178333Y0080659D03*
X0178333Y0090659D03*
X0178333Y0100659D03*
X0178333Y0110659D03*
X0188333Y0110659D03*
X0198333Y0110659D03*
X0208333Y0110659D03*
X0218333Y0110659D03*
X0228333Y0110659D03*
X0238333Y0110659D03*
X0248333Y0110659D03*
X0258333Y0110659D03*
X0268333Y0110659D03*
X0278333Y0110659D03*
X0288333Y0110659D03*
X0298333Y0110659D03*
X0308333Y0110659D03*
X0308333Y0050659D03*
X0253333Y0020659D03*
X0243333Y0020659D03*
X0143392Y0092854D03*
X0133392Y0092854D03*
X0133392Y0102854D03*
X0123392Y0102854D03*
X0143392Y0102854D03*
X0153392Y0102854D03*
X0153333Y0120659D03*
X0163333Y0120659D03*
X0158333Y0175659D03*
D12*
X0123392Y0092854D03*
X0153392Y0092854D03*
X0148333Y0175659D03*
D13*
X0253333Y0030659D03*
X0298333Y0030659D03*
D14*
X0280733Y0210659D02*
X0275933Y0210659D01*
X0275933Y0220659D02*
X0280733Y0220659D01*
X0280733Y0230659D02*
X0275933Y0230659D01*
X0275933Y0240659D02*
X0280733Y0240659D01*
X0280733Y0250659D02*
X0275933Y0250659D01*
X0275933Y0260659D02*
X0280733Y0260659D01*
X0280733Y0270659D02*
X0275933Y0270659D01*
X0275933Y0280659D02*
X0280733Y0280659D01*
X0250733Y0280659D02*
X0245933Y0280659D01*
X0245933Y0270659D02*
X0250733Y0270659D01*
X0250733Y0260659D02*
X0245933Y0260659D01*
X0245933Y0250659D02*
X0250733Y0250659D01*
X0250733Y0240659D02*
X0245933Y0240659D01*
X0245933Y0230659D02*
X0250733Y0230659D01*
X0250733Y0220659D02*
X0245933Y0220659D01*
X0245933Y0210659D02*
X0250733Y0210659D01*
D15*
X0171333Y0155659D02*
X0165333Y0155659D01*
X0165333Y0145659D02*
X0171333Y0145659D01*
X0171333Y0135659D02*
X0165333Y0135659D01*
D16*
X0278333Y0150816D03*
X0278333Y0170501D03*
M02*
