G75*
%MOIN*%
%OFA0B0*%
%FSLAX25Y25*%
%IPPOS*%
%LPD*%
%AMOC8*
5,1,8,0,0,1.08239X$1,22.5*
%
%ADD10C,0.00800*%
%ADD11C,0.00300*%
%ADD12C,0.00400*%
%ADD13C,0.01400*%
%ADD14C,0.00500*%
%ADD15C,0.00600*%
%ADD16C,0.00200*%
%ADD17R,0.03500X0.05000*%
%ADD18C,0.01000*%
%ADD19C,0.00591*%
D10*
X0158333Y0118159D02*
X0158333Y0123159D01*
X0173333Y0115659D02*
X0313333Y0115659D01*
X0313333Y0085659D01*
X0308333Y0085659D01*
X0308333Y0075659D01*
X0313333Y0075659D01*
X0313333Y0045659D01*
X0173333Y0045659D01*
X0173333Y0115659D01*
X0143333Y0133159D02*
X0143333Y0138159D01*
X0140833Y0140659D01*
X0143333Y0143159D01*
X0143333Y0148159D01*
X0140833Y0150659D01*
X0143333Y0153159D01*
X0143333Y0158159D01*
X0140833Y0160659D01*
X0135833Y0160659D01*
X0133333Y0158159D01*
X0133333Y0153159D01*
X0135833Y0150659D01*
X0133333Y0148159D01*
X0133333Y0143159D01*
X0135833Y0140659D01*
X0133333Y0138159D01*
X0133333Y0133159D01*
X0135833Y0130659D01*
X0140833Y0130659D01*
X0143333Y0133159D01*
X0123333Y0133159D02*
X0123333Y0138159D01*
X0120833Y0140659D01*
X0123333Y0143159D01*
X0123333Y0148159D01*
X0120833Y0150659D01*
X0123333Y0153159D01*
X0123333Y0158159D01*
X0120833Y0160659D01*
X0115833Y0160659D01*
X0113333Y0158159D01*
X0113333Y0153159D01*
X0115833Y0150659D01*
X0113333Y0148159D01*
X0113333Y0143159D01*
X0115833Y0140659D01*
X0113333Y0138159D01*
X0113333Y0133159D01*
X0115833Y0130659D01*
X0120833Y0130659D01*
X0123333Y0133159D01*
X0155833Y0170659D02*
X0160833Y0170659D01*
X0140538Y0175659D02*
X0140542Y0175973D01*
X0140553Y0176287D01*
X0140573Y0176600D01*
X0140600Y0176913D01*
X0140634Y0177225D01*
X0140676Y0177536D01*
X0140726Y0177846D01*
X0140784Y0178155D01*
X0140849Y0178462D01*
X0140921Y0178768D01*
X0141001Y0179072D01*
X0141089Y0179373D01*
X0141184Y0179673D01*
X0141286Y0179970D01*
X0141395Y0180264D01*
X0141512Y0180555D01*
X0141636Y0180844D01*
X0141766Y0181130D01*
X0141904Y0181412D01*
X0142049Y0181691D01*
X0142200Y0181966D01*
X0142358Y0182237D01*
X0142523Y0182504D01*
X0142694Y0182768D01*
X0142872Y0183026D01*
X0143056Y0183281D01*
X0143246Y0183531D01*
X0143442Y0183776D01*
X0143645Y0184016D01*
X0143853Y0184252D01*
X0144066Y0184482D01*
X0144286Y0184706D01*
X0144510Y0184926D01*
X0144740Y0185139D01*
X0144976Y0185347D01*
X0145216Y0185550D01*
X0145461Y0185746D01*
X0145711Y0185936D01*
X0145966Y0186120D01*
X0146224Y0186298D01*
X0146488Y0186469D01*
X0146755Y0186634D01*
X0147026Y0186792D01*
X0147301Y0186943D01*
X0147580Y0187088D01*
X0147862Y0187226D01*
X0148148Y0187356D01*
X0148437Y0187480D01*
X0148728Y0187597D01*
X0149022Y0187706D01*
X0149319Y0187808D01*
X0149619Y0187903D01*
X0149920Y0187991D01*
X0150224Y0188071D01*
X0150530Y0188143D01*
X0150837Y0188208D01*
X0151146Y0188266D01*
X0151456Y0188316D01*
X0151767Y0188358D01*
X0152079Y0188392D01*
X0152392Y0188419D01*
X0152705Y0188439D01*
X0153019Y0188450D01*
X0153333Y0188454D01*
X0153647Y0188450D01*
X0153961Y0188439D01*
X0154274Y0188419D01*
X0154587Y0188392D01*
X0154899Y0188358D01*
X0155210Y0188316D01*
X0155520Y0188266D01*
X0155829Y0188208D01*
X0156136Y0188143D01*
X0156442Y0188071D01*
X0156746Y0187991D01*
X0157047Y0187903D01*
X0157347Y0187808D01*
X0157644Y0187706D01*
X0157938Y0187597D01*
X0158229Y0187480D01*
X0158518Y0187356D01*
X0158804Y0187226D01*
X0159086Y0187088D01*
X0159365Y0186943D01*
X0159640Y0186792D01*
X0159911Y0186634D01*
X0160178Y0186469D01*
X0160442Y0186298D01*
X0160700Y0186120D01*
X0160955Y0185936D01*
X0161205Y0185746D01*
X0161450Y0185550D01*
X0161690Y0185347D01*
X0161926Y0185139D01*
X0162156Y0184926D01*
X0162380Y0184706D01*
X0162600Y0184482D01*
X0162813Y0184252D01*
X0163021Y0184016D01*
X0163224Y0183776D01*
X0163420Y0183531D01*
X0163610Y0183281D01*
X0163794Y0183026D01*
X0163972Y0182768D01*
X0164143Y0182504D01*
X0164308Y0182237D01*
X0164466Y0181966D01*
X0164617Y0181691D01*
X0164762Y0181412D01*
X0164900Y0181130D01*
X0165030Y0180844D01*
X0165154Y0180555D01*
X0165271Y0180264D01*
X0165380Y0179970D01*
X0165482Y0179673D01*
X0165577Y0179373D01*
X0165665Y0179072D01*
X0165745Y0178768D01*
X0165817Y0178462D01*
X0165882Y0178155D01*
X0165940Y0177846D01*
X0165990Y0177536D01*
X0166032Y0177225D01*
X0166066Y0176913D01*
X0166093Y0176600D01*
X0166113Y0176287D01*
X0166124Y0175973D01*
X0166128Y0175659D01*
X0166124Y0175345D01*
X0166113Y0175031D01*
X0166093Y0174718D01*
X0166066Y0174405D01*
X0166032Y0174093D01*
X0165990Y0173782D01*
X0165940Y0173472D01*
X0165882Y0173163D01*
X0165817Y0172856D01*
X0165745Y0172550D01*
X0165665Y0172246D01*
X0165577Y0171945D01*
X0165482Y0171645D01*
X0165380Y0171348D01*
X0165271Y0171054D01*
X0165154Y0170763D01*
X0165030Y0170474D01*
X0164900Y0170188D01*
X0164762Y0169906D01*
X0164617Y0169627D01*
X0164466Y0169352D01*
X0164308Y0169081D01*
X0164143Y0168814D01*
X0163972Y0168550D01*
X0163794Y0168292D01*
X0163610Y0168037D01*
X0163420Y0167787D01*
X0163224Y0167542D01*
X0163021Y0167302D01*
X0162813Y0167066D01*
X0162600Y0166836D01*
X0162380Y0166612D01*
X0162156Y0166392D01*
X0161926Y0166179D01*
X0161690Y0165971D01*
X0161450Y0165768D01*
X0161205Y0165572D01*
X0160955Y0165382D01*
X0160700Y0165198D01*
X0160442Y0165020D01*
X0160178Y0164849D01*
X0159911Y0164684D01*
X0159640Y0164526D01*
X0159365Y0164375D01*
X0159086Y0164230D01*
X0158804Y0164092D01*
X0158518Y0163962D01*
X0158229Y0163838D01*
X0157938Y0163721D01*
X0157644Y0163612D01*
X0157347Y0163510D01*
X0157047Y0163415D01*
X0156746Y0163327D01*
X0156442Y0163247D01*
X0156136Y0163175D01*
X0155829Y0163110D01*
X0155520Y0163052D01*
X0155210Y0163002D01*
X0154899Y0162960D01*
X0154587Y0162926D01*
X0154274Y0162899D01*
X0153961Y0162879D01*
X0153647Y0162868D01*
X0153333Y0162864D01*
X0153019Y0162868D01*
X0152705Y0162879D01*
X0152392Y0162899D01*
X0152079Y0162926D01*
X0151767Y0162960D01*
X0151456Y0163002D01*
X0151146Y0163052D01*
X0150837Y0163110D01*
X0150530Y0163175D01*
X0150224Y0163247D01*
X0149920Y0163327D01*
X0149619Y0163415D01*
X0149319Y0163510D01*
X0149022Y0163612D01*
X0148728Y0163721D01*
X0148437Y0163838D01*
X0148148Y0163962D01*
X0147862Y0164092D01*
X0147580Y0164230D01*
X0147301Y0164375D01*
X0147026Y0164526D01*
X0146755Y0164684D01*
X0146488Y0164849D01*
X0146224Y0165020D01*
X0145966Y0165198D01*
X0145711Y0165382D01*
X0145461Y0165572D01*
X0145216Y0165768D01*
X0144976Y0165971D01*
X0144740Y0166179D01*
X0144510Y0166392D01*
X0144286Y0166612D01*
X0144066Y0166836D01*
X0143853Y0167066D01*
X0143645Y0167302D01*
X0143442Y0167542D01*
X0143246Y0167787D01*
X0143056Y0168037D01*
X0142872Y0168292D01*
X0142694Y0168550D01*
X0142523Y0168814D01*
X0142358Y0169081D01*
X0142200Y0169352D01*
X0142049Y0169627D01*
X0141904Y0169906D01*
X0141766Y0170188D01*
X0141636Y0170474D01*
X0141512Y0170763D01*
X0141395Y0171054D01*
X0141286Y0171348D01*
X0141184Y0171645D01*
X0141089Y0171945D01*
X0141001Y0172246D01*
X0140921Y0172550D01*
X0140849Y0172856D01*
X0140784Y0173163D01*
X0140726Y0173472D01*
X0140676Y0173782D01*
X0140634Y0174093D01*
X0140600Y0174405D01*
X0140573Y0174718D01*
X0140553Y0175031D01*
X0140542Y0175345D01*
X0140538Y0175659D01*
X0133333Y0178159D02*
X0133333Y0183159D01*
X0130833Y0185659D01*
X0125833Y0185659D01*
X0123333Y0183159D01*
X0123333Y0178159D01*
X0125833Y0175659D01*
X0130833Y0175659D01*
X0133333Y0178159D01*
X0173333Y0178159D02*
X0175833Y0175659D01*
X0180833Y0175659D01*
X0183333Y0178159D01*
X0183333Y0183159D01*
X0180833Y0185659D01*
X0175833Y0185659D01*
X0173333Y0183159D01*
X0173333Y0178159D01*
X0178530Y0211663D02*
X0178532Y0211760D01*
X0178538Y0211857D01*
X0178548Y0211953D01*
X0178562Y0212049D01*
X0178580Y0212145D01*
X0178601Y0212239D01*
X0178627Y0212333D01*
X0178656Y0212425D01*
X0178690Y0212516D01*
X0178726Y0212606D01*
X0178767Y0212694D01*
X0178811Y0212780D01*
X0178859Y0212865D01*
X0178910Y0212947D01*
X0178964Y0213028D01*
X0179022Y0213106D01*
X0179083Y0213181D01*
X0179146Y0213254D01*
X0179213Y0213325D01*
X0179283Y0213392D01*
X0179355Y0213457D01*
X0179430Y0213518D01*
X0179508Y0213577D01*
X0179587Y0213632D01*
X0179669Y0213684D01*
X0179753Y0213732D01*
X0179839Y0213777D01*
X0179927Y0213819D01*
X0180016Y0213857D01*
X0180107Y0213891D01*
X0180199Y0213921D01*
X0180292Y0213948D01*
X0180387Y0213970D01*
X0180482Y0213989D01*
X0180578Y0214004D01*
X0180674Y0214015D01*
X0180771Y0214022D01*
X0180868Y0214025D01*
X0180965Y0214024D01*
X0181062Y0214019D01*
X0181158Y0214010D01*
X0181254Y0213997D01*
X0181350Y0213980D01*
X0181445Y0213959D01*
X0181538Y0213935D01*
X0181631Y0213906D01*
X0181723Y0213874D01*
X0181813Y0213838D01*
X0181901Y0213799D01*
X0181988Y0213755D01*
X0182073Y0213709D01*
X0182156Y0213658D01*
X0182237Y0213605D01*
X0182315Y0213548D01*
X0182392Y0213488D01*
X0182465Y0213425D01*
X0182536Y0213359D01*
X0182604Y0213290D01*
X0182670Y0213218D01*
X0182732Y0213144D01*
X0182791Y0213067D01*
X0182847Y0212988D01*
X0182900Y0212906D01*
X0182950Y0212823D01*
X0182995Y0212737D01*
X0183038Y0212650D01*
X0183077Y0212561D01*
X0183112Y0212471D01*
X0183143Y0212379D01*
X0183170Y0212286D01*
X0183194Y0212192D01*
X0183214Y0212097D01*
X0183230Y0212001D01*
X0183242Y0211905D01*
X0183250Y0211808D01*
X0183254Y0211711D01*
X0183254Y0211615D01*
X0183250Y0211518D01*
X0183242Y0211421D01*
X0183230Y0211325D01*
X0183214Y0211229D01*
X0183194Y0211134D01*
X0183170Y0211040D01*
X0183143Y0210947D01*
X0183112Y0210855D01*
X0183077Y0210765D01*
X0183038Y0210676D01*
X0182995Y0210589D01*
X0182950Y0210503D01*
X0182900Y0210420D01*
X0182847Y0210338D01*
X0182791Y0210259D01*
X0182732Y0210182D01*
X0182670Y0210108D01*
X0182604Y0210036D01*
X0182536Y0209967D01*
X0182465Y0209901D01*
X0182392Y0209838D01*
X0182315Y0209778D01*
X0182237Y0209721D01*
X0182156Y0209668D01*
X0182073Y0209617D01*
X0181988Y0209571D01*
X0181901Y0209527D01*
X0181813Y0209488D01*
X0181723Y0209452D01*
X0181631Y0209420D01*
X0181538Y0209391D01*
X0181445Y0209367D01*
X0181350Y0209346D01*
X0181254Y0209329D01*
X0181158Y0209316D01*
X0181062Y0209307D01*
X0180965Y0209302D01*
X0180868Y0209301D01*
X0180771Y0209304D01*
X0180674Y0209311D01*
X0180578Y0209322D01*
X0180482Y0209337D01*
X0180387Y0209356D01*
X0180292Y0209378D01*
X0180199Y0209405D01*
X0180107Y0209435D01*
X0180016Y0209469D01*
X0179927Y0209507D01*
X0179839Y0209549D01*
X0179753Y0209594D01*
X0179669Y0209642D01*
X0179587Y0209694D01*
X0179508Y0209749D01*
X0179430Y0209808D01*
X0179355Y0209869D01*
X0179283Y0209934D01*
X0179213Y0210001D01*
X0179146Y0210072D01*
X0179083Y0210145D01*
X0179022Y0210220D01*
X0178964Y0210298D01*
X0178910Y0210379D01*
X0178859Y0210461D01*
X0178811Y0210546D01*
X0178767Y0210632D01*
X0178726Y0210720D01*
X0178690Y0210810D01*
X0178656Y0210901D01*
X0178627Y0210993D01*
X0178601Y0211087D01*
X0178580Y0211181D01*
X0178562Y0211277D01*
X0178548Y0211373D01*
X0178538Y0211469D01*
X0178532Y0211566D01*
X0178530Y0211663D01*
X0251833Y0206659D02*
X0251833Y0205659D01*
X0274833Y0205659D01*
X0274833Y0206659D01*
X0298609Y0248257D02*
X0298609Y0273060D01*
X0308058Y0273060D01*
X0308058Y0248257D01*
X0298609Y0248257D01*
X0274833Y0284659D02*
X0274833Y0285659D01*
X0267333Y0285659D01*
X0267331Y0285533D01*
X0267325Y0285408D01*
X0267315Y0285283D01*
X0267301Y0285158D01*
X0267284Y0285033D01*
X0267262Y0284909D01*
X0267237Y0284786D01*
X0267207Y0284664D01*
X0267174Y0284543D01*
X0267137Y0284423D01*
X0267097Y0284304D01*
X0267052Y0284187D01*
X0267004Y0284070D01*
X0266952Y0283956D01*
X0266897Y0283843D01*
X0266838Y0283732D01*
X0266776Y0283623D01*
X0266710Y0283516D01*
X0266641Y0283411D01*
X0266569Y0283308D01*
X0266494Y0283207D01*
X0266415Y0283109D01*
X0266333Y0283014D01*
X0266249Y0282921D01*
X0266161Y0282831D01*
X0266071Y0282743D01*
X0265978Y0282659D01*
X0265883Y0282577D01*
X0265785Y0282498D01*
X0265684Y0282423D01*
X0265581Y0282351D01*
X0265476Y0282282D01*
X0265369Y0282216D01*
X0265260Y0282154D01*
X0265149Y0282095D01*
X0265036Y0282040D01*
X0264922Y0281988D01*
X0264805Y0281940D01*
X0264688Y0281895D01*
X0264569Y0281855D01*
X0264449Y0281818D01*
X0264328Y0281785D01*
X0264206Y0281755D01*
X0264083Y0281730D01*
X0263959Y0281708D01*
X0263834Y0281691D01*
X0263709Y0281677D01*
X0263584Y0281667D01*
X0263459Y0281661D01*
X0263333Y0281659D01*
X0263207Y0281661D01*
X0263082Y0281667D01*
X0262957Y0281677D01*
X0262832Y0281691D01*
X0262707Y0281708D01*
X0262583Y0281730D01*
X0262460Y0281755D01*
X0262338Y0281785D01*
X0262217Y0281818D01*
X0262097Y0281855D01*
X0261978Y0281895D01*
X0261861Y0281940D01*
X0261744Y0281988D01*
X0261630Y0282040D01*
X0261517Y0282095D01*
X0261406Y0282154D01*
X0261297Y0282216D01*
X0261190Y0282282D01*
X0261085Y0282351D01*
X0260982Y0282423D01*
X0260881Y0282498D01*
X0260783Y0282577D01*
X0260688Y0282659D01*
X0260595Y0282743D01*
X0260505Y0282831D01*
X0260417Y0282921D01*
X0260333Y0283014D01*
X0260251Y0283109D01*
X0260172Y0283207D01*
X0260097Y0283308D01*
X0260025Y0283411D01*
X0259956Y0283516D01*
X0259890Y0283623D01*
X0259828Y0283732D01*
X0259769Y0283843D01*
X0259714Y0283956D01*
X0259662Y0284070D01*
X0259614Y0284187D01*
X0259569Y0284304D01*
X0259529Y0284423D01*
X0259492Y0284543D01*
X0259459Y0284664D01*
X0259429Y0284786D01*
X0259404Y0284909D01*
X0259382Y0285033D01*
X0259365Y0285158D01*
X0259351Y0285283D01*
X0259341Y0285408D01*
X0259335Y0285533D01*
X0259333Y0285659D01*
X0251833Y0285659D01*
X0251833Y0284659D01*
X0264188Y0086767D02*
X0264188Y0077559D01*
X0270327Y0077559D01*
X0273396Y0079093D02*
X0274931Y0077559D01*
X0278000Y0077559D01*
X0279535Y0079093D01*
X0273396Y0079093D02*
X0273396Y0085232D01*
X0274931Y0086767D01*
X0278000Y0086767D01*
X0279535Y0085232D01*
X0251911Y0083697D02*
X0251911Y0076024D01*
X0250377Y0074490D01*
X0248842Y0074490D01*
X0247307Y0077559D02*
X0245773Y0079093D01*
X0245773Y0083697D01*
X0242703Y0083697D02*
X0238099Y0083697D01*
X0236565Y0082163D01*
X0238099Y0080628D01*
X0241169Y0080628D01*
X0242703Y0079093D01*
X0241169Y0077559D01*
X0236565Y0077559D01*
X0233495Y0077559D02*
X0233495Y0082163D01*
X0231961Y0083697D01*
X0227357Y0083697D01*
X0227357Y0077559D01*
X0224288Y0080628D02*
X0218149Y0080628D01*
X0218149Y0079093D02*
X0218149Y0082163D01*
X0219684Y0083697D01*
X0222753Y0083697D01*
X0224288Y0082163D01*
X0224288Y0080628D01*
X0222753Y0077559D02*
X0219684Y0077559D01*
X0218149Y0079093D01*
X0215080Y0080628D02*
X0208941Y0080628D01*
X0208941Y0079093D02*
X0208941Y0082163D01*
X0210476Y0083697D01*
X0213545Y0083697D01*
X0215080Y0082163D01*
X0215080Y0080628D01*
X0213545Y0077559D02*
X0210476Y0077559D01*
X0208941Y0079093D01*
X0202803Y0077559D02*
X0202803Y0086767D01*
X0205872Y0086767D02*
X0199733Y0086767D01*
X0247307Y0077559D02*
X0251911Y0077559D01*
X0250833Y0035659D02*
X0255833Y0035659D01*
X0258333Y0033159D01*
X0258333Y0028159D01*
X0255833Y0025659D01*
X0250833Y0025659D01*
X0248333Y0028159D01*
X0245833Y0025659D01*
X0240833Y0025659D01*
X0238333Y0028159D01*
X0235833Y0025659D01*
X0230833Y0025659D01*
X0228333Y0028159D01*
X0225833Y0025659D01*
X0220833Y0025659D01*
X0218333Y0028159D01*
X0218333Y0033159D01*
X0220833Y0035659D01*
X0225833Y0035659D01*
X0228333Y0033159D01*
X0230833Y0035659D01*
X0235833Y0035659D01*
X0238333Y0033159D01*
X0240833Y0035659D01*
X0245833Y0035659D01*
X0248333Y0033159D01*
X0250833Y0035659D01*
X0263333Y0033159D02*
X0263333Y0028159D01*
X0265833Y0025659D01*
X0270833Y0025659D01*
X0273333Y0028159D01*
X0275833Y0025659D01*
X0280833Y0025659D01*
X0283333Y0028159D01*
X0285833Y0025659D01*
X0290833Y0025659D01*
X0293333Y0028159D01*
X0295833Y0025659D01*
X0300833Y0025659D01*
X0303333Y0028159D01*
X0303333Y0033159D01*
X0300833Y0035659D01*
X0295833Y0035659D01*
X0293333Y0033159D01*
X0290833Y0035659D01*
X0285833Y0035659D01*
X0283333Y0033159D01*
X0280833Y0035659D01*
X0275833Y0035659D01*
X0273333Y0033159D01*
X0270833Y0035659D01*
X0265833Y0035659D01*
X0263333Y0033159D01*
X0248333Y0023159D02*
X0248333Y0018159D01*
X0293333Y0018159D02*
X0293333Y0023159D01*
D11*
X0292742Y0016012D02*
X0291508Y0014778D01*
X0292742Y0016012D02*
X0292742Y0012309D01*
X0291508Y0012309D02*
X0293977Y0012309D01*
X0295191Y0012926D02*
X0295808Y0012309D01*
X0297660Y0012309D01*
X0297660Y0014778D01*
X0298874Y0014160D02*
X0300109Y0014160D01*
X0298874Y0012309D02*
X0298874Y0016012D01*
X0301343Y0016012D01*
X0295191Y0014778D02*
X0295191Y0012926D01*
X0290284Y0012926D02*
X0290284Y0012309D01*
X0289666Y0012309D01*
X0289666Y0012926D01*
X0290284Y0012926D01*
X0288452Y0012926D02*
X0287835Y0012309D01*
X0286601Y0012309D01*
X0285983Y0012926D01*
X0288452Y0015395D01*
X0288452Y0012926D01*
X0285983Y0012926D02*
X0285983Y0015395D01*
X0286601Y0016012D01*
X0287835Y0016012D01*
X0288452Y0015395D01*
X0282251Y0015778D02*
X0281633Y0015778D01*
X0280399Y0014543D01*
X0280399Y0013309D02*
X0280399Y0015778D01*
X0279185Y0015160D02*
X0278567Y0015778D01*
X0277333Y0015778D01*
X0276716Y0015160D01*
X0276716Y0013926D01*
X0277333Y0013309D01*
X0278567Y0013309D01*
X0279185Y0013926D01*
X0279185Y0015160D01*
X0275502Y0015778D02*
X0273650Y0015778D01*
X0273033Y0015160D01*
X0273650Y0014543D01*
X0274884Y0014543D01*
X0275502Y0013926D01*
X0274884Y0013309D01*
X0273033Y0013309D01*
X0271818Y0013309D02*
X0271818Y0015160D01*
X0271201Y0015778D01*
X0269350Y0015778D01*
X0269350Y0013309D01*
X0268135Y0014543D02*
X0265666Y0014543D01*
X0265666Y0013926D02*
X0265666Y0015160D01*
X0266284Y0015778D01*
X0267518Y0015778D01*
X0268135Y0015160D01*
X0268135Y0014543D01*
X0267518Y0013309D02*
X0266284Y0013309D01*
X0265666Y0013926D01*
X0264452Y0013926D02*
X0263835Y0013309D01*
X0262601Y0013309D01*
X0261983Y0013926D01*
X0262601Y0015160D02*
X0263835Y0015160D01*
X0264452Y0014543D01*
X0264452Y0013926D01*
X0262601Y0015160D02*
X0261983Y0015778D01*
X0261983Y0016395D01*
X0262601Y0017012D01*
X0263835Y0017012D01*
X0264452Y0016395D01*
X0265666Y0019309D02*
X0265666Y0021778D01*
X0265666Y0020543D02*
X0266901Y0021778D01*
X0267518Y0021778D01*
X0268736Y0021160D02*
X0268736Y0019926D01*
X0269353Y0019309D01*
X0270587Y0019309D01*
X0271205Y0019926D01*
X0271205Y0021160D01*
X0270587Y0021778D01*
X0269353Y0021778D01*
X0268736Y0021160D01*
X0272419Y0021778D02*
X0272419Y0019309D01*
X0272419Y0021778D02*
X0274270Y0021778D01*
X0274888Y0021160D01*
X0274888Y0019309D01*
X0276719Y0019926D02*
X0277336Y0019309D01*
X0276719Y0019926D02*
X0276719Y0022395D01*
X0276102Y0021778D02*
X0277336Y0021778D01*
X0264452Y0023012D02*
X0261983Y0023012D01*
X0261983Y0019309D01*
X0261983Y0021160D02*
X0263218Y0021160D01*
X0256843Y0016012D02*
X0254374Y0016012D01*
X0254374Y0012309D01*
X0253160Y0012309D02*
X0253160Y0014778D01*
X0254374Y0014160D02*
X0255609Y0014160D01*
X0253160Y0012309D02*
X0251308Y0012309D01*
X0250691Y0012926D01*
X0250691Y0014778D01*
X0248242Y0016012D02*
X0248242Y0012309D01*
X0247008Y0012309D02*
X0249477Y0012309D01*
X0247008Y0014778D02*
X0248242Y0016012D01*
X0245784Y0012926D02*
X0245784Y0012309D01*
X0245166Y0012309D01*
X0245166Y0012926D01*
X0245784Y0012926D01*
X0243952Y0012926D02*
X0243335Y0012309D01*
X0242101Y0012309D01*
X0241483Y0012926D01*
X0243952Y0015395D01*
X0243952Y0012926D01*
X0241483Y0012926D02*
X0241483Y0015395D01*
X0242101Y0016012D01*
X0243335Y0016012D01*
X0243952Y0015395D01*
X0235251Y0016278D02*
X0234633Y0016278D01*
X0233399Y0015043D01*
X0233399Y0013809D02*
X0233399Y0016278D01*
X0232185Y0015660D02*
X0231567Y0016278D01*
X0230333Y0016278D01*
X0229716Y0015660D01*
X0229716Y0014426D01*
X0230333Y0013809D01*
X0231567Y0013809D01*
X0232185Y0014426D01*
X0232185Y0015660D01*
X0228502Y0016278D02*
X0226650Y0016278D01*
X0226033Y0015660D01*
X0226650Y0015043D01*
X0227884Y0015043D01*
X0228502Y0014426D01*
X0227884Y0013809D01*
X0226033Y0013809D01*
X0224818Y0013809D02*
X0224818Y0015660D01*
X0224201Y0016278D01*
X0222350Y0016278D01*
X0222350Y0013809D01*
X0221135Y0015043D02*
X0218666Y0015043D01*
X0218666Y0014426D02*
X0218666Y0015660D01*
X0219284Y0016278D01*
X0220518Y0016278D01*
X0221135Y0015660D01*
X0221135Y0015043D01*
X0220518Y0013809D02*
X0219284Y0013809D01*
X0218666Y0014426D01*
X0217452Y0014426D02*
X0216835Y0013809D01*
X0215601Y0013809D01*
X0214983Y0014426D01*
X0215601Y0015660D02*
X0216835Y0015660D01*
X0217452Y0015043D01*
X0217452Y0014426D01*
X0215601Y0015660D02*
X0214983Y0016278D01*
X0214983Y0016895D01*
X0215601Y0017512D01*
X0216835Y0017512D01*
X0217452Y0016895D01*
X0217452Y0019809D02*
X0216218Y0021043D01*
X0216835Y0021043D02*
X0214983Y0021043D01*
X0214983Y0019809D02*
X0214983Y0023512D01*
X0216835Y0023512D01*
X0217452Y0022895D01*
X0217452Y0021660D01*
X0216835Y0021043D01*
X0218666Y0021043D02*
X0221135Y0021043D01*
X0221135Y0021660D01*
X0220518Y0022278D01*
X0219284Y0022278D01*
X0218666Y0021660D01*
X0218666Y0020426D01*
X0219284Y0019809D01*
X0220518Y0019809D01*
X0222350Y0020426D02*
X0222967Y0019809D01*
X0224818Y0019809D01*
X0224818Y0021660D01*
X0224201Y0022278D01*
X0222967Y0022278D01*
X0222967Y0021043D02*
X0224818Y0021043D01*
X0226033Y0021043D02*
X0227267Y0022278D01*
X0227884Y0022278D01*
X0226033Y0022278D02*
X0226033Y0019809D01*
X0222967Y0021043D02*
X0222350Y0020426D01*
X0158374Y0181309D02*
X0158374Y0184512D01*
X0160509Y0184512D01*
X0159442Y0182910D02*
X0158374Y0182910D01*
X0157287Y0183444D02*
X0157287Y0181309D01*
X0155685Y0181309D01*
X0155152Y0181843D01*
X0155152Y0183444D01*
X0154064Y0183978D02*
X0151929Y0181843D01*
X0152463Y0181309D01*
X0153530Y0181309D01*
X0154064Y0181843D01*
X0154064Y0183978D01*
X0153530Y0184512D01*
X0152463Y0184512D01*
X0151929Y0183978D01*
X0151929Y0181843D01*
X0150841Y0181843D02*
X0150307Y0181309D01*
X0149240Y0181309D01*
X0148706Y0181843D01*
X0150841Y0183978D01*
X0150841Y0181843D01*
X0150841Y0183978D02*
X0150307Y0184512D01*
X0149240Y0184512D01*
X0148706Y0183978D01*
X0148706Y0181843D01*
X0147618Y0181309D02*
X0145483Y0181309D01*
X0146551Y0181309D02*
X0146551Y0184512D01*
X0145483Y0183444D01*
D12*
X0145801Y0158463D02*
X0145033Y0157695D01*
X0145033Y0154626D01*
X0145801Y0153859D01*
X0147335Y0153859D01*
X0148103Y0154626D01*
X0148103Y0156161D01*
X0146568Y0156161D01*
X0148103Y0157695D02*
X0147335Y0158463D01*
X0145801Y0158463D01*
X0149637Y0158463D02*
X0152707Y0153859D01*
X0152707Y0158463D01*
X0154241Y0158463D02*
X0156543Y0158463D01*
X0157310Y0157695D01*
X0157310Y0154626D01*
X0156543Y0153859D01*
X0154241Y0153859D01*
X0154241Y0158463D01*
X0149637Y0158463D02*
X0149637Y0153859D01*
X0150405Y0147463D02*
X0149637Y0146695D01*
X0149637Y0143626D01*
X0150405Y0142859D01*
X0151939Y0142859D01*
X0152707Y0143626D01*
X0154241Y0143626D02*
X0155008Y0142859D01*
X0156543Y0142859D01*
X0157310Y0143626D01*
X0154241Y0143626D02*
X0154241Y0146695D01*
X0155008Y0147463D01*
X0156543Y0147463D01*
X0157310Y0146695D01*
X0152707Y0146695D02*
X0151939Y0147463D01*
X0150405Y0147463D01*
X0148103Y0147463D02*
X0148103Y0144393D01*
X0146568Y0142859D01*
X0145033Y0144393D01*
X0145033Y0147463D01*
X0145801Y0137963D02*
X0145033Y0137195D01*
X0145033Y0136428D01*
X0145801Y0135661D01*
X0147335Y0135661D01*
X0148103Y0134893D01*
X0148103Y0134126D01*
X0147335Y0133359D01*
X0145801Y0133359D01*
X0145033Y0134126D01*
X0148103Y0137195D02*
X0147335Y0137963D01*
X0145801Y0137963D01*
X0149637Y0137963D02*
X0151172Y0137963D01*
X0150405Y0137963D02*
X0150405Y0133359D01*
X0151172Y0133359D02*
X0149637Y0133359D01*
X0152707Y0134126D02*
X0152707Y0137195D01*
X0153474Y0137963D01*
X0155008Y0137963D01*
X0155776Y0137195D01*
X0155776Y0135661D02*
X0154241Y0135661D01*
X0155776Y0135661D02*
X0155776Y0134126D01*
X0155008Y0133359D01*
X0153474Y0133359D01*
X0152707Y0134126D01*
X0151835Y0115463D02*
X0150301Y0115463D01*
X0149533Y0114695D01*
X0149533Y0111626D01*
X0152603Y0114695D01*
X0152603Y0111626D01*
X0151835Y0110859D01*
X0150301Y0110859D01*
X0149533Y0111626D01*
X0152603Y0114695D02*
X0151835Y0115463D01*
X0154137Y0111626D02*
X0154905Y0111626D01*
X0154905Y0110859D01*
X0154137Y0110859D01*
X0154137Y0111626D01*
X0156439Y0110859D02*
X0159508Y0110859D01*
X0157974Y0110859D02*
X0157974Y0115463D01*
X0156439Y0113928D01*
X0161043Y0113928D02*
X0161043Y0111626D01*
X0161810Y0110859D01*
X0164112Y0110859D01*
X0164112Y0113928D01*
X0165647Y0113161D02*
X0167182Y0113161D01*
X0165647Y0115463D02*
X0168716Y0115463D01*
X0165647Y0115463D02*
X0165647Y0110859D01*
D13*
X0213033Y0172926D02*
X0215802Y0175695D01*
X0226878Y0175695D01*
X0224109Y0178464D02*
X0224109Y0172926D01*
X0221340Y0183962D02*
X0215802Y0183962D01*
X0213033Y0186731D01*
X0213033Y0192270D01*
X0215802Y0195039D01*
X0221340Y0195039D01*
X0224109Y0192270D01*
X0224109Y0186731D01*
X0221340Y0183962D01*
X0218571Y0200537D02*
X0215802Y0200537D01*
X0213033Y0203306D01*
X0213033Y0211613D01*
X0229648Y0211613D01*
X0229648Y0203306D01*
X0226878Y0200537D01*
X0224109Y0200537D01*
X0221340Y0203306D01*
X0221340Y0211613D01*
X0221340Y0203306D02*
X0218571Y0200537D01*
X0218571Y0233685D02*
X0218571Y0241992D01*
X0215802Y0244761D01*
X0213033Y0241992D01*
X0213033Y0233685D01*
X0221340Y0233685D01*
X0224109Y0236454D01*
X0224109Y0241992D01*
X0224109Y0250272D02*
X0224109Y0255810D01*
X0226878Y0253041D02*
X0215802Y0253041D01*
X0213033Y0250272D01*
X0218571Y0261308D02*
X0218571Y0272385D01*
X0215802Y0272385D02*
X0221340Y0272385D01*
X0224109Y0269616D01*
X0224109Y0264078D01*
X0221340Y0261308D01*
X0218571Y0261308D01*
X0213033Y0264078D02*
X0213033Y0269616D01*
X0215802Y0272385D01*
X0218571Y0277883D02*
X0215802Y0280652D01*
X0215802Y0288959D01*
X0210264Y0288959D02*
X0226878Y0288959D01*
X0226878Y0280652D01*
X0224109Y0277883D01*
X0221340Y0280652D01*
X0218571Y0277883D01*
X0221340Y0280652D02*
X0221340Y0283421D01*
D14*
X0165892Y0011604D02*
X0109642Y0011604D01*
X0109642Y0041604D01*
X0165892Y0041604D01*
X0165892Y0109104D01*
X0109642Y0109104D01*
X0109642Y0041604D01*
X0165892Y0041604D02*
X0165892Y0011604D01*
X0131083Y0114409D02*
X0125579Y0114409D01*
X0125579Y0117161D01*
X0126496Y0118079D01*
X0128331Y0118079D01*
X0129248Y0117161D01*
X0129248Y0114409D01*
X0129248Y0116244D02*
X0131083Y0118079D01*
X0131083Y0119934D02*
X0131083Y0121768D01*
X0131083Y0120851D02*
X0127414Y0120851D01*
X0127414Y0119934D01*
X0125579Y0120851D02*
X0124661Y0120851D01*
X0128331Y0123617D02*
X0130166Y0123617D01*
X0131083Y0124534D01*
X0131083Y0127286D01*
X0132001Y0127286D02*
X0127414Y0127286D01*
X0127414Y0124534D01*
X0128331Y0123617D01*
X0132918Y0125452D02*
X0132918Y0126369D01*
X0132001Y0127286D01*
X0131083Y0129141D02*
X0125579Y0129141D01*
X0127414Y0130059D02*
X0127414Y0131894D01*
X0128331Y0132811D01*
X0131083Y0132811D01*
X0130166Y0135584D02*
X0126496Y0135584D01*
X0127414Y0136501D02*
X0127414Y0134666D01*
X0130166Y0135584D02*
X0131083Y0136501D01*
X0127414Y0130059D02*
X0128331Y0129141D01*
X0127414Y0143874D02*
X0128331Y0144791D01*
X0128331Y0146626D01*
X0129248Y0147544D01*
X0130166Y0147544D01*
X0131083Y0146626D01*
X0131083Y0144791D01*
X0130166Y0143874D01*
X0127414Y0143874D02*
X0126496Y0143874D01*
X0125579Y0144791D01*
X0125579Y0146626D01*
X0126496Y0147544D01*
X0128331Y0149399D02*
X0127414Y0150316D01*
X0127414Y0152151D01*
X0128331Y0153068D01*
X0129248Y0153068D01*
X0129248Y0149399D01*
X0128331Y0149399D02*
X0130166Y0149399D01*
X0131083Y0150316D01*
X0131083Y0152151D01*
X0131083Y0154923D02*
X0127414Y0154923D01*
X0129248Y0154923D02*
X0127414Y0156758D01*
X0127414Y0157676D01*
X0127414Y0159527D02*
X0131083Y0161362D01*
X0127414Y0163197D01*
X0128331Y0165052D02*
X0127414Y0165969D01*
X0127414Y0167804D01*
X0128331Y0168722D01*
X0130166Y0168722D01*
X0131083Y0167804D01*
X0131083Y0165969D01*
X0130166Y0165052D01*
X0128331Y0165052D01*
X0110583Y0164780D02*
X0110583Y0162945D01*
X0109666Y0162027D01*
X0107831Y0162027D01*
X0106914Y0162945D01*
X0106914Y0164780D01*
X0107831Y0165697D01*
X0109666Y0165697D01*
X0110583Y0164780D01*
X0106914Y0160172D02*
X0110583Y0158337D01*
X0106914Y0156503D01*
X0106914Y0154651D02*
X0106914Y0153734D01*
X0108748Y0151899D01*
X0106914Y0151899D02*
X0110583Y0151899D01*
X0108748Y0150044D02*
X0108748Y0146374D01*
X0107831Y0146374D02*
X0106914Y0147291D01*
X0106914Y0149126D01*
X0107831Y0150044D01*
X0108748Y0150044D01*
X0110583Y0149126D02*
X0110583Y0147291D01*
X0109666Y0146374D01*
X0107831Y0146374D01*
X0108748Y0144519D02*
X0109666Y0144519D01*
X0110583Y0143602D01*
X0110583Y0141767D01*
X0109666Y0140849D01*
X0107831Y0141767D02*
X0107831Y0143602D01*
X0108748Y0144519D01*
X0105996Y0144519D02*
X0105079Y0143602D01*
X0105079Y0141767D01*
X0105996Y0140849D01*
X0106914Y0140849D01*
X0107831Y0141767D01*
X0106914Y0133476D02*
X0106914Y0131641D01*
X0105996Y0132559D02*
X0109666Y0132559D01*
X0110583Y0133476D01*
X0107831Y0129793D02*
X0107831Y0127958D01*
X0107831Y0126103D02*
X0108748Y0126103D01*
X0108748Y0122434D01*
X0107831Y0122434D02*
X0106914Y0123351D01*
X0106914Y0125186D01*
X0107831Y0126103D01*
X0110583Y0125186D02*
X0110583Y0123351D01*
X0109666Y0122434D01*
X0107831Y0122434D01*
X0110583Y0120579D02*
X0110583Y0116909D01*
X0105079Y0116909D01*
X0105996Y0128876D02*
X0105079Y0129793D01*
X0105996Y0128876D02*
X0110583Y0128876D01*
X0204583Y0133785D02*
X0205501Y0133785D01*
X0209171Y0130115D01*
X0210088Y0130115D01*
X0210088Y0133785D01*
X0210088Y0137475D02*
X0204583Y0137475D01*
X0204583Y0139310D02*
X0204583Y0135640D01*
X0208253Y0139310D02*
X0210088Y0137475D01*
X0210088Y0143000D02*
X0204583Y0143000D01*
X0204583Y0144835D02*
X0204583Y0141165D01*
X0208253Y0144835D02*
X0210088Y0143000D01*
X0204583Y0146690D02*
X0204583Y0150359D01*
X0204583Y0148524D02*
X0210088Y0148524D01*
X0208253Y0150359D01*
X0209171Y0152214D02*
X0205501Y0152214D01*
X0204583Y0153132D01*
X0204583Y0155884D01*
X0210088Y0155884D01*
X0210088Y0153132D01*
X0209171Y0152214D01*
X0204583Y0157739D02*
X0204583Y0161409D01*
X0210088Y0161409D01*
X0285333Y0161659D02*
X0286333Y0160659D01*
X0285333Y0159659D01*
X0285333Y0137659D01*
X0287333Y0137659D01*
X0287333Y0139659D01*
X0299333Y0139659D01*
X0299333Y0137659D01*
X0301333Y0137659D01*
X0301333Y0159659D01*
X0300333Y0160659D01*
X0301333Y0161659D01*
X0301333Y0183659D01*
X0299333Y0183659D01*
X0299333Y0181659D01*
X0287333Y0181659D01*
X0287333Y0183659D01*
X0285333Y0183659D01*
X0285333Y0161659D01*
X0289333Y0158659D02*
X0297333Y0158659D01*
X0297333Y0157659D02*
X0289333Y0157659D01*
X0289333Y0156659D02*
X0297333Y0156659D01*
X0297333Y0155659D02*
X0289333Y0155659D01*
X0289333Y0154659D02*
X0297333Y0154659D01*
X0297333Y0153659D02*
X0289333Y0153659D01*
X0289333Y0152659D02*
X0297333Y0152659D01*
X0302331Y0251909D02*
X0301881Y0252359D01*
X0301881Y0253260D01*
X0302331Y0253710D01*
X0302782Y0253710D01*
X0304583Y0251909D01*
X0304583Y0253710D01*
X0304583Y0254855D02*
X0304583Y0255306D01*
X0304133Y0255306D01*
X0304133Y0254855D01*
X0304583Y0254855D01*
X0304583Y0256329D02*
X0302782Y0258130D01*
X0302331Y0258130D01*
X0301881Y0257680D01*
X0301881Y0256779D01*
X0302331Y0256329D01*
X0304583Y0256329D02*
X0304583Y0258130D01*
X0304583Y0259275D02*
X0301881Y0259275D01*
X0302782Y0260626D02*
X0303683Y0259275D01*
X0304583Y0260626D01*
D15*
X0271533Y0260990D02*
X0267263Y0263125D01*
X0268331Y0265300D02*
X0267263Y0266368D01*
X0267263Y0268503D01*
X0268331Y0269570D01*
X0269398Y0269570D01*
X0269398Y0265300D01*
X0268331Y0265300D02*
X0270466Y0265300D01*
X0271533Y0266368D01*
X0271533Y0268503D01*
X0271533Y0271746D02*
X0267263Y0271746D01*
X0269398Y0271746D02*
X0267263Y0273881D01*
X0267263Y0274948D01*
X0271533Y0260990D02*
X0267263Y0258855D01*
X0267263Y0255625D02*
X0271533Y0255625D01*
X0271533Y0254558D02*
X0271533Y0256693D01*
X0267263Y0255625D02*
X0267263Y0254558D01*
X0267263Y0252389D02*
X0267263Y0251321D01*
X0269398Y0249186D01*
X0271533Y0249186D02*
X0267263Y0249186D01*
X0266195Y0247011D02*
X0265128Y0245944D01*
X0265128Y0242741D01*
X0271533Y0242741D01*
X0271533Y0245944D01*
X0270466Y0247011D01*
X0266195Y0247011D01*
X0261033Y0245944D02*
X0261033Y0243808D01*
X0259966Y0242741D01*
X0259966Y0240566D02*
X0261033Y0239498D01*
X0261033Y0237363D01*
X0259966Y0236295D01*
X0257831Y0236295D02*
X0256763Y0238430D01*
X0256763Y0239498D01*
X0257831Y0240566D01*
X0259966Y0240566D01*
X0256763Y0242741D02*
X0255695Y0242741D01*
X0254628Y0243808D01*
X0254628Y0245944D01*
X0255695Y0247011D01*
X0259966Y0247011D01*
X0261033Y0245944D01*
X0261033Y0249186D02*
X0261033Y0253457D01*
X0261033Y0251321D02*
X0254628Y0251321D01*
X0256763Y0249186D01*
X0257831Y0247011D02*
X0257831Y0243808D01*
X0256763Y0242741D01*
X0254628Y0240566D02*
X0254628Y0236295D01*
X0257831Y0236295D01*
X0259966Y0234120D02*
X0261033Y0233053D01*
X0261033Y0230917D01*
X0259966Y0229850D01*
X0255695Y0229850D01*
X0254628Y0230917D01*
X0254628Y0233053D01*
X0255695Y0234120D01*
X0261033Y0227675D02*
X0261033Y0223404D01*
X0254628Y0223404D01*
X0254628Y0221229D02*
X0254628Y0216959D01*
X0254628Y0219094D02*
X0261033Y0219094D01*
X0265128Y0216959D02*
X0271533Y0216959D01*
X0271533Y0221229D01*
X0271533Y0223404D02*
X0265128Y0223404D01*
X0265128Y0227675D01*
X0265128Y0229850D02*
X0265128Y0233053D01*
X0266195Y0234120D01*
X0270466Y0234120D01*
X0271533Y0233053D01*
X0271533Y0229850D01*
X0265128Y0229850D01*
X0268331Y0225539D02*
X0268331Y0223404D01*
X0271533Y0223404D02*
X0271533Y0227675D01*
X0265128Y0255625D02*
X0264060Y0255625D01*
X0261033Y0256699D02*
X0261033Y0258834D01*
X0259966Y0259902D01*
X0258898Y0259902D01*
X0257831Y0258834D01*
X0257831Y0255632D01*
X0259966Y0255632D01*
X0261033Y0256699D01*
X0257831Y0255632D02*
X0255695Y0257767D01*
X0254628Y0259902D01*
X0173833Y0264659D02*
X0170333Y0268159D01*
X0167833Y0265659D01*
X0164333Y0247159D01*
X0166333Y0244659D01*
X0170833Y0247659D01*
X0173833Y0264659D01*
X0169333Y0269659D02*
X0165833Y0266159D01*
X0147833Y0266159D01*
X0145833Y0269659D01*
X0149333Y0272159D01*
X0167333Y0272159D01*
X0169333Y0269659D01*
X0147833Y0264159D02*
X0144333Y0268159D01*
X0141833Y0266159D01*
X0138333Y0247159D01*
X0140333Y0244159D01*
X0144833Y0247659D01*
X0147833Y0264159D01*
X0145333Y0245659D02*
X0141833Y0243159D01*
X0143833Y0240159D01*
X0161833Y0240159D01*
X0165333Y0243159D01*
X0163333Y0245659D01*
X0145333Y0245659D01*
X0139833Y0242159D02*
X0143333Y0238659D01*
X0140333Y0221659D01*
X0135833Y0218159D01*
X0133833Y0221159D01*
X0137333Y0239659D01*
X0139833Y0242159D01*
X0163833Y0239159D02*
X0165833Y0241659D01*
X0169333Y0237659D01*
X0166333Y0220659D01*
X0161833Y0217659D01*
X0159833Y0220159D01*
X0163833Y0239159D01*
X0158333Y0219659D02*
X0140833Y0219659D01*
X0137333Y0217159D01*
X0139333Y0214159D01*
X0157333Y0214159D01*
X0160833Y0217159D01*
X0158333Y0219659D01*
X0118268Y0182797D02*
X0118268Y0178526D01*
X0116133Y0180662D02*
X0120404Y0180662D01*
X0178333Y0166159D02*
X0227333Y0166159D01*
X0227333Y0162659D01*
X0233333Y0162659D01*
X0233333Y0166159D01*
X0240833Y0166159D01*
X0240833Y0125159D01*
X0233333Y0125159D01*
X0233333Y0128659D01*
X0227333Y0128659D01*
X0227333Y0125159D01*
X0178333Y0125159D01*
X0178333Y0166159D01*
X0193633Y0154291D02*
X0194701Y0155359D01*
X0193633Y0154291D02*
X0193633Y0152156D01*
X0194701Y0151088D01*
X0195768Y0151088D01*
X0196836Y0152156D01*
X0196836Y0153224D01*
X0196836Y0152156D02*
X0197904Y0151088D01*
X0198971Y0151088D01*
X0200039Y0152156D01*
X0200039Y0154291D01*
X0198971Y0155359D01*
X0200039Y0148913D02*
X0195768Y0148913D01*
X0193633Y0146778D01*
X0195768Y0144643D01*
X0200039Y0144643D01*
X0198971Y0142468D02*
X0200039Y0141400D01*
X0200039Y0139265D01*
X0198971Y0138197D01*
X0197904Y0138197D01*
X0196836Y0139265D01*
X0195768Y0138197D01*
X0194701Y0138197D01*
X0193633Y0139265D01*
X0193633Y0141400D01*
X0194701Y0142468D01*
X0196836Y0140333D02*
X0196836Y0139265D01*
X0220233Y0145659D02*
X0220235Y0145833D01*
X0220242Y0146007D01*
X0220252Y0146181D01*
X0220267Y0146355D01*
X0220286Y0146528D01*
X0220310Y0146701D01*
X0220338Y0146873D01*
X0220369Y0147044D01*
X0220406Y0147215D01*
X0220446Y0147384D01*
X0220490Y0147553D01*
X0220539Y0147720D01*
X0220591Y0147886D01*
X0220648Y0148051D01*
X0220709Y0148214D01*
X0220773Y0148376D01*
X0220842Y0148536D01*
X0220915Y0148695D01*
X0220991Y0148851D01*
X0221071Y0149006D01*
X0221155Y0149159D01*
X0221243Y0149309D01*
X0221335Y0149457D01*
X0221430Y0149604D01*
X0221528Y0149747D01*
X0221630Y0149888D01*
X0221736Y0150027D01*
X0221845Y0150163D01*
X0221957Y0150297D01*
X0222072Y0150427D01*
X0222191Y0150555D01*
X0222313Y0150679D01*
X0222437Y0150801D01*
X0222565Y0150920D01*
X0222695Y0151035D01*
X0222829Y0151147D01*
X0222965Y0151256D01*
X0223104Y0151362D01*
X0223245Y0151464D01*
X0223388Y0151562D01*
X0223535Y0151657D01*
X0223683Y0151749D01*
X0223833Y0151837D01*
X0223986Y0151921D01*
X0224141Y0152001D01*
X0224297Y0152077D01*
X0224456Y0152150D01*
X0224616Y0152219D01*
X0224778Y0152283D01*
X0224941Y0152344D01*
X0225106Y0152401D01*
X0225272Y0152453D01*
X0225439Y0152502D01*
X0225608Y0152546D01*
X0225777Y0152586D01*
X0225948Y0152623D01*
X0226119Y0152654D01*
X0226291Y0152682D01*
X0226464Y0152706D01*
X0226637Y0152725D01*
X0226811Y0152740D01*
X0226985Y0152750D01*
X0227159Y0152757D01*
X0227333Y0152759D01*
X0227507Y0152757D01*
X0227681Y0152750D01*
X0227855Y0152740D01*
X0228029Y0152725D01*
X0228202Y0152706D01*
X0228375Y0152682D01*
X0228547Y0152654D01*
X0228718Y0152623D01*
X0228889Y0152586D01*
X0229058Y0152546D01*
X0229227Y0152502D01*
X0229394Y0152453D01*
X0229560Y0152401D01*
X0229725Y0152344D01*
X0229888Y0152283D01*
X0230050Y0152219D01*
X0230210Y0152150D01*
X0230369Y0152077D01*
X0230525Y0152001D01*
X0230680Y0151921D01*
X0230833Y0151837D01*
X0230983Y0151749D01*
X0231131Y0151657D01*
X0231278Y0151562D01*
X0231421Y0151464D01*
X0231562Y0151362D01*
X0231701Y0151256D01*
X0231837Y0151147D01*
X0231971Y0151035D01*
X0232101Y0150920D01*
X0232229Y0150801D01*
X0232353Y0150679D01*
X0232475Y0150555D01*
X0232594Y0150427D01*
X0232709Y0150297D01*
X0232821Y0150163D01*
X0232930Y0150027D01*
X0233036Y0149888D01*
X0233138Y0149747D01*
X0233236Y0149604D01*
X0233331Y0149457D01*
X0233423Y0149309D01*
X0233511Y0149159D01*
X0233595Y0149006D01*
X0233675Y0148851D01*
X0233751Y0148695D01*
X0233824Y0148536D01*
X0233893Y0148376D01*
X0233957Y0148214D01*
X0234018Y0148051D01*
X0234075Y0147886D01*
X0234127Y0147720D01*
X0234176Y0147553D01*
X0234220Y0147384D01*
X0234260Y0147215D01*
X0234297Y0147044D01*
X0234328Y0146873D01*
X0234356Y0146701D01*
X0234380Y0146528D01*
X0234399Y0146355D01*
X0234414Y0146181D01*
X0234424Y0146007D01*
X0234431Y0145833D01*
X0234433Y0145659D01*
X0234431Y0145485D01*
X0234424Y0145311D01*
X0234414Y0145137D01*
X0234399Y0144963D01*
X0234380Y0144790D01*
X0234356Y0144617D01*
X0234328Y0144445D01*
X0234297Y0144274D01*
X0234260Y0144103D01*
X0234220Y0143934D01*
X0234176Y0143765D01*
X0234127Y0143598D01*
X0234075Y0143432D01*
X0234018Y0143267D01*
X0233957Y0143104D01*
X0233893Y0142942D01*
X0233824Y0142782D01*
X0233751Y0142623D01*
X0233675Y0142467D01*
X0233595Y0142312D01*
X0233511Y0142159D01*
X0233423Y0142009D01*
X0233331Y0141861D01*
X0233236Y0141714D01*
X0233138Y0141571D01*
X0233036Y0141430D01*
X0232930Y0141291D01*
X0232821Y0141155D01*
X0232709Y0141021D01*
X0232594Y0140891D01*
X0232475Y0140763D01*
X0232353Y0140639D01*
X0232229Y0140517D01*
X0232101Y0140398D01*
X0231971Y0140283D01*
X0231837Y0140171D01*
X0231701Y0140062D01*
X0231562Y0139956D01*
X0231421Y0139854D01*
X0231278Y0139756D01*
X0231131Y0139661D01*
X0230983Y0139569D01*
X0230833Y0139481D01*
X0230680Y0139397D01*
X0230525Y0139317D01*
X0230369Y0139241D01*
X0230210Y0139168D01*
X0230050Y0139099D01*
X0229888Y0139035D01*
X0229725Y0138974D01*
X0229560Y0138917D01*
X0229394Y0138865D01*
X0229227Y0138816D01*
X0229058Y0138772D01*
X0228889Y0138732D01*
X0228718Y0138695D01*
X0228547Y0138664D01*
X0228375Y0138636D01*
X0228202Y0138612D01*
X0228029Y0138593D01*
X0227855Y0138578D01*
X0227681Y0138568D01*
X0227507Y0138561D01*
X0227333Y0138559D01*
X0227159Y0138561D01*
X0226985Y0138568D01*
X0226811Y0138578D01*
X0226637Y0138593D01*
X0226464Y0138612D01*
X0226291Y0138636D01*
X0226119Y0138664D01*
X0225948Y0138695D01*
X0225777Y0138732D01*
X0225608Y0138772D01*
X0225439Y0138816D01*
X0225272Y0138865D01*
X0225106Y0138917D01*
X0224941Y0138974D01*
X0224778Y0139035D01*
X0224616Y0139099D01*
X0224456Y0139168D01*
X0224297Y0139241D01*
X0224141Y0139317D01*
X0223986Y0139397D01*
X0223833Y0139481D01*
X0223683Y0139569D01*
X0223535Y0139661D01*
X0223388Y0139756D01*
X0223245Y0139854D01*
X0223104Y0139956D01*
X0222965Y0140062D01*
X0222829Y0140171D01*
X0222695Y0140283D01*
X0222565Y0140398D01*
X0222437Y0140517D01*
X0222313Y0140639D01*
X0222191Y0140763D01*
X0222072Y0140891D01*
X0221957Y0141021D01*
X0221845Y0141155D01*
X0221736Y0141291D01*
X0221630Y0141430D01*
X0221528Y0141571D01*
X0221430Y0141714D01*
X0221335Y0141861D01*
X0221243Y0142009D01*
X0221155Y0142159D01*
X0221071Y0142312D01*
X0220991Y0142467D01*
X0220915Y0142623D01*
X0220842Y0142782D01*
X0220773Y0142942D01*
X0220709Y0143104D01*
X0220648Y0143267D01*
X0220591Y0143432D01*
X0220539Y0143598D01*
X0220490Y0143765D01*
X0220446Y0143934D01*
X0220406Y0144103D01*
X0220369Y0144274D01*
X0220338Y0144445D01*
X0220310Y0144617D01*
X0220286Y0144790D01*
X0220267Y0144963D01*
X0220252Y0145137D01*
X0220242Y0145311D01*
X0220235Y0145485D01*
X0220233Y0145659D01*
X0190404Y0180662D02*
X0186133Y0180662D01*
X0269128Y0151162D02*
X0269128Y0149026D01*
X0270195Y0147959D01*
X0271263Y0147959D01*
X0272331Y0149026D01*
X0272331Y0151162D01*
X0273398Y0152229D01*
X0274466Y0152229D01*
X0275533Y0151162D01*
X0275533Y0149026D01*
X0274466Y0147959D01*
X0270195Y0152229D02*
X0269128Y0151162D01*
X0272331Y0154404D02*
X0271263Y0155472D01*
X0271263Y0157607D01*
X0272331Y0158675D01*
X0273398Y0158675D01*
X0273398Y0154404D01*
X0272331Y0154404D02*
X0274466Y0154404D01*
X0275533Y0155472D01*
X0275533Y0157607D01*
X0271263Y0160850D02*
X0271263Y0162985D01*
X0270195Y0161917D02*
X0274466Y0161917D01*
X0275533Y0162985D01*
X0274466Y0165147D02*
X0271263Y0165147D01*
X0274466Y0165147D02*
X0275533Y0166214D01*
X0275533Y0169417D01*
X0271263Y0169417D01*
X0271263Y0171592D02*
X0271263Y0174795D01*
X0272331Y0175863D01*
X0274466Y0175863D01*
X0275533Y0174795D01*
X0275533Y0171592D01*
X0277668Y0171592D02*
X0271263Y0171592D01*
X0148334Y0078932D02*
X0148334Y0077864D01*
X0148334Y0075729D02*
X0148334Y0071459D01*
X0147267Y0071459D02*
X0149402Y0071459D01*
X0149415Y0067364D02*
X0150483Y0067364D01*
X0150483Y0060959D01*
X0151550Y0060959D02*
X0149415Y0060959D01*
X0147240Y0060959D02*
X0147240Y0065229D01*
X0142970Y0065229D02*
X0142970Y0062026D01*
X0144037Y0060959D01*
X0147240Y0060959D01*
X0153712Y0062026D02*
X0153712Y0064162D01*
X0154780Y0065229D01*
X0156915Y0065229D01*
X0157983Y0064162D01*
X0157983Y0063094D01*
X0153712Y0063094D01*
X0153712Y0062026D02*
X0154780Y0060959D01*
X0156915Y0060959D01*
X0140795Y0060959D02*
X0137592Y0060959D01*
X0136524Y0062026D01*
X0136524Y0064162D01*
X0137592Y0065229D01*
X0140795Y0065229D01*
X0140795Y0067364D02*
X0140795Y0060959D01*
X0134349Y0062026D02*
X0134349Y0064162D01*
X0133282Y0065229D01*
X0131146Y0065229D01*
X0130079Y0064162D01*
X0130079Y0062026D01*
X0131146Y0060959D01*
X0133282Y0060959D01*
X0134349Y0062026D01*
X0127904Y0060959D02*
X0127904Y0067364D01*
X0125768Y0065229D01*
X0123633Y0067364D01*
X0123633Y0060959D01*
X0123633Y0071459D02*
X0125768Y0073594D01*
X0127904Y0071459D01*
X0127904Y0077864D01*
X0130079Y0075729D02*
X0131146Y0075729D01*
X0131146Y0071459D01*
X0130079Y0071459D02*
X0132214Y0071459D01*
X0134376Y0074662D02*
X0138646Y0074662D01*
X0140821Y0074662D02*
X0142956Y0074662D01*
X0140821Y0077864D02*
X0140821Y0071459D01*
X0140821Y0077864D02*
X0145092Y0077864D01*
X0147267Y0075729D02*
X0148334Y0075729D01*
X0131146Y0077864D02*
X0131146Y0078932D01*
X0123633Y0077864D02*
X0123633Y0071459D01*
X0123198Y0031310D02*
X0120729Y0031310D01*
X0119495Y0030076D01*
X0119495Y0028841D01*
X0120729Y0027607D01*
X0123198Y0027607D01*
X0124432Y0026372D01*
X0124432Y0025138D01*
X0123198Y0023904D01*
X0120729Y0023904D01*
X0119495Y0025138D01*
X0117066Y0023904D02*
X0112128Y0023904D01*
X0112128Y0031310D01*
X0117066Y0031310D01*
X0114597Y0027607D02*
X0112128Y0027607D01*
X0123198Y0031310D02*
X0124432Y0030076D01*
X0126861Y0031310D02*
X0126861Y0023904D01*
X0126861Y0026372D02*
X0130564Y0026372D01*
X0131798Y0027607D01*
X0131798Y0030076D01*
X0130564Y0031310D01*
X0126861Y0031310D01*
X0134227Y0030076D02*
X0134227Y0028841D01*
X0135462Y0027607D01*
X0137930Y0027607D01*
X0139165Y0026372D01*
X0139165Y0025138D01*
X0137930Y0023904D01*
X0135462Y0023904D01*
X0134227Y0025138D01*
X0134227Y0026372D01*
X0135462Y0027607D01*
X0137930Y0027607D02*
X0139165Y0028841D01*
X0139165Y0030076D01*
X0137930Y0031310D01*
X0135462Y0031310D01*
X0134227Y0030076D01*
X0141593Y0030076D02*
X0142828Y0031310D01*
X0145297Y0031310D01*
X0146531Y0030076D01*
X0146531Y0028841D01*
X0141593Y0023904D01*
X0146531Y0023904D01*
X0148960Y0025138D02*
X0150194Y0023904D01*
X0152663Y0023904D01*
X0153897Y0025138D01*
X0153897Y0026372D01*
X0152663Y0027607D01*
X0148960Y0027607D01*
X0148960Y0025138D01*
X0148960Y0027607D02*
X0151429Y0030076D01*
X0153897Y0031310D01*
X0156326Y0027607D02*
X0160029Y0027607D01*
X0161264Y0026372D01*
X0161264Y0025138D01*
X0160029Y0023904D01*
X0157560Y0023904D01*
X0156326Y0025138D01*
X0156326Y0027607D01*
X0158795Y0030076D01*
X0161264Y0031310D01*
D16*
X0180833Y0127659D02*
X0213333Y0127659D01*
X0213333Y0163659D01*
X0180833Y0163659D01*
X0180833Y0127659D01*
D17*
X0176583Y0135659D03*
X0176583Y0145659D03*
X0176583Y0155659D03*
D18*
X0182861Y0193946D02*
X0188766Y0199852D01*
X0188766Y0292371D01*
X0117900Y0292371D01*
X0117900Y0193946D01*
X0182861Y0193946D01*
D19*
X0191654Y0039336D02*
X0191202Y0034889D01*
X0190197Y0034598D01*
X0189230Y0034198D01*
X0188313Y0033693D01*
X0184850Y0036517D01*
X0182475Y0034142D01*
X0185299Y0030679D01*
X0184794Y0029762D01*
X0184394Y0028795D01*
X0184103Y0027790D01*
X0179657Y0027338D01*
X0179657Y0023980D01*
X0184103Y0023528D01*
X0184394Y0022522D01*
X0184794Y0021556D01*
X0185299Y0020639D01*
X0182475Y0017175D01*
X0184850Y0014801D01*
X0188313Y0017625D01*
X0188996Y0017237D01*
X0189708Y0016906D01*
X0191685Y0021680D01*
X0191042Y0022013D01*
X0190464Y0022448D01*
X0189966Y0022974D01*
X0189564Y0023576D01*
X0189269Y0024237D01*
X0189088Y0024937D01*
X0189027Y0025659D01*
X0189103Y0026463D01*
X0189327Y0027239D01*
X0189693Y0027959D01*
X0190186Y0028598D01*
X0190790Y0029134D01*
X0191484Y0029548D01*
X0192242Y0029825D01*
X0193039Y0029955D01*
X0193847Y0029934D01*
X0194636Y0029763D01*
X0195379Y0029448D01*
X0196051Y0028999D01*
X0196627Y0028433D01*
X0197087Y0027769D01*
X0197415Y0027031D01*
X0197599Y0026245D01*
X0197634Y0025438D01*
X0197517Y0024639D01*
X0197253Y0023876D01*
X0196851Y0023176D01*
X0196326Y0022562D01*
X0195695Y0022058D01*
X0194981Y0021680D01*
X0196959Y0016906D01*
X0197671Y0017237D01*
X0198353Y0017625D01*
X0201817Y0014801D01*
X0204192Y0017175D01*
X0201368Y0020639D01*
X0201872Y0021556D01*
X0202273Y0022522D01*
X0202564Y0023528D01*
X0207010Y0023980D01*
X0207010Y0027338D01*
X0202564Y0027790D01*
X0202273Y0028795D01*
X0201872Y0029762D01*
X0201368Y0030679D01*
X0204192Y0034142D01*
X0201817Y0036517D01*
X0198353Y0033693D01*
X0197437Y0034198D01*
X0196470Y0034598D01*
X0195464Y0034889D01*
X0195012Y0039336D01*
X0191654Y0039336D01*
X0191613Y0038934D02*
X0195053Y0038934D01*
X0195113Y0038345D02*
X0191553Y0038345D01*
X0191494Y0037756D02*
X0195173Y0037756D01*
X0195233Y0037167D02*
X0191434Y0037167D01*
X0191374Y0036578D02*
X0195293Y0036578D01*
X0195353Y0035988D02*
X0191314Y0035988D01*
X0191254Y0035399D02*
X0195413Y0035399D01*
X0195737Y0034810D02*
X0190929Y0034810D01*
X0189287Y0034221D02*
X0197380Y0034221D01*
X0199001Y0034221D02*
X0204113Y0034221D01*
X0203776Y0033632D02*
X0182891Y0033632D01*
X0182554Y0034221D02*
X0187665Y0034221D01*
X0186943Y0034810D02*
X0183143Y0034810D01*
X0183732Y0035399D02*
X0186221Y0035399D01*
X0185498Y0035988D02*
X0184321Y0035988D01*
X0183371Y0033043D02*
X0203295Y0033043D01*
X0202815Y0032454D02*
X0183852Y0032454D01*
X0184332Y0031865D02*
X0202335Y0031865D01*
X0201854Y0031276D02*
X0184812Y0031276D01*
X0185293Y0030687D02*
X0201374Y0030687D01*
X0201687Y0030098D02*
X0184979Y0030098D01*
X0184690Y0029509D02*
X0191419Y0029509D01*
X0190549Y0028920D02*
X0184446Y0028920D01*
X0184259Y0028331D02*
X0189980Y0028331D01*
X0189583Y0027742D02*
X0183628Y0027742D01*
X0179657Y0027153D02*
X0189302Y0027153D01*
X0189132Y0026563D02*
X0179657Y0026563D01*
X0179657Y0025974D02*
X0189057Y0025974D01*
X0189050Y0025385D02*
X0179657Y0025385D01*
X0179657Y0024796D02*
X0189124Y0024796D01*
X0189282Y0024207D02*
X0179657Y0024207D01*
X0183213Y0023618D02*
X0189545Y0023618D01*
X0189930Y0023029D02*
X0184247Y0023029D01*
X0184428Y0022440D02*
X0190474Y0022440D01*
X0191355Y0021851D02*
X0184672Y0021851D01*
X0184956Y0021262D02*
X0191512Y0021262D01*
X0191268Y0020673D02*
X0185280Y0020673D01*
X0184847Y0020084D02*
X0191024Y0020084D01*
X0190780Y0019495D02*
X0184366Y0019495D01*
X0183886Y0018906D02*
X0190536Y0018906D01*
X0190292Y0018317D02*
X0183406Y0018317D01*
X0182925Y0017728D02*
X0190048Y0017728D01*
X0189804Y0017138D02*
X0189207Y0017138D01*
X0187717Y0017138D02*
X0182512Y0017138D01*
X0183101Y0016549D02*
X0186995Y0016549D01*
X0186272Y0015960D02*
X0183690Y0015960D01*
X0184279Y0015371D02*
X0185550Y0015371D01*
X0195887Y0019495D02*
X0202300Y0019495D01*
X0201820Y0020084D02*
X0195643Y0020084D01*
X0195399Y0020673D02*
X0201386Y0020673D01*
X0201711Y0021262D02*
X0195155Y0021262D01*
X0195304Y0021851D02*
X0201995Y0021851D01*
X0202239Y0022440D02*
X0196173Y0022440D01*
X0196726Y0023029D02*
X0202420Y0023029D01*
X0203454Y0023618D02*
X0197105Y0023618D01*
X0197368Y0024207D02*
X0207010Y0024207D01*
X0207010Y0024796D02*
X0197540Y0024796D01*
X0197626Y0025385D02*
X0207010Y0025385D01*
X0207010Y0025974D02*
X0197611Y0025974D01*
X0197525Y0026563D02*
X0207010Y0026563D01*
X0207010Y0027153D02*
X0197361Y0027153D01*
X0197099Y0027742D02*
X0203039Y0027742D01*
X0202407Y0028331D02*
X0196698Y0028331D01*
X0196132Y0028920D02*
X0202221Y0028920D01*
X0201977Y0029509D02*
X0195236Y0029509D01*
X0199724Y0034810D02*
X0203523Y0034810D01*
X0202934Y0035399D02*
X0200446Y0035399D01*
X0201169Y0035988D02*
X0202345Y0035988D01*
X0202781Y0018906D02*
X0196131Y0018906D01*
X0196375Y0018317D02*
X0203261Y0018317D01*
X0203741Y0017728D02*
X0196619Y0017728D01*
X0196863Y0017138D02*
X0197459Y0017138D01*
X0198950Y0017138D02*
X0204155Y0017138D01*
X0203566Y0016549D02*
X0199672Y0016549D01*
X0200394Y0015960D02*
X0202977Y0015960D01*
X0202388Y0015371D02*
X0201117Y0015371D01*
M02*
