G75*
%MOIN*%
%OFA0B0*%
%FSLAX25Y25*%
%IPPOS*%
%LPD*%
%AMOC8*
5,1,8,0,0,1.08239X$1,22.5*
%
%ADD10C,0.00300*%
D10*
X0220980Y0014908D02*
X0222215Y0013674D01*
X0224683Y0013674D01*
X0222832Y0013674D02*
X0222832Y0016142D01*
X0222215Y0016142D02*
X0220980Y0014908D01*
X0222215Y0016142D02*
X0224683Y0016142D01*
X0224066Y0017357D02*
X0221597Y0017357D01*
X0220980Y0017974D01*
X0220980Y0019826D01*
X0224683Y0019826D01*
X0224683Y0017974D01*
X0224066Y0017357D01*
X0224066Y0021040D02*
X0223449Y0021040D01*
X0222832Y0021657D01*
X0222832Y0022892D01*
X0222215Y0023509D01*
X0221597Y0023509D01*
X0220980Y0022892D01*
X0220980Y0021657D01*
X0221597Y0021040D01*
X0224066Y0021040D02*
X0224683Y0021657D01*
X0224683Y0022892D01*
X0224066Y0023509D01*
X0230980Y0022392D02*
X0231597Y0023009D01*
X0232215Y0023009D01*
X0232832Y0022392D01*
X0232832Y0021157D01*
X0233449Y0020540D01*
X0234066Y0020540D01*
X0234683Y0021157D01*
X0234683Y0022392D01*
X0234066Y0023009D01*
X0230980Y0022392D02*
X0230980Y0021157D01*
X0231597Y0020540D01*
X0231597Y0019326D02*
X0234066Y0019326D01*
X0234683Y0018708D01*
X0234683Y0017474D01*
X0234066Y0016857D01*
X0234683Y0015642D02*
X0230980Y0015642D01*
X0231597Y0016857D02*
X0230980Y0017474D01*
X0230980Y0018708D01*
X0231597Y0019326D01*
X0234683Y0015642D02*
X0234683Y0013174D01*
X0265980Y0014908D02*
X0267215Y0013674D01*
X0269683Y0013674D01*
X0267832Y0013674D02*
X0267832Y0016142D01*
X0267215Y0016142D02*
X0265980Y0014908D01*
X0267215Y0016142D02*
X0269683Y0016142D01*
X0269066Y0017357D02*
X0266597Y0017357D01*
X0265980Y0017974D01*
X0265980Y0019826D01*
X0269683Y0019826D01*
X0269683Y0017974D01*
X0269066Y0017357D01*
X0269066Y0021040D02*
X0269683Y0021657D01*
X0269683Y0022892D01*
X0269066Y0023509D01*
X0267832Y0022892D02*
X0267832Y0021657D01*
X0268449Y0021040D01*
X0269066Y0021040D01*
X0267832Y0022892D02*
X0267215Y0023509D01*
X0266597Y0023509D01*
X0265980Y0022892D01*
X0265980Y0021657D01*
X0266597Y0021040D01*
X0275980Y0021157D02*
X0275980Y0022392D01*
X0276597Y0023009D01*
X0277215Y0023009D01*
X0277832Y0022392D01*
X0277832Y0021157D01*
X0278449Y0020540D01*
X0279066Y0020540D01*
X0279683Y0021157D01*
X0279683Y0022392D01*
X0279066Y0023009D01*
X0276597Y0020540D02*
X0275980Y0021157D01*
X0276597Y0019326D02*
X0279066Y0019326D01*
X0279683Y0018708D01*
X0279683Y0017474D01*
X0279066Y0016857D01*
X0279683Y0015642D02*
X0275980Y0015642D01*
X0276597Y0016857D02*
X0275980Y0017474D01*
X0275980Y0018708D01*
X0276597Y0019326D01*
X0279683Y0015642D02*
X0279683Y0013174D01*
X0282965Y0038309D02*
X0282348Y0038926D01*
X0282965Y0038309D02*
X0284200Y0038309D01*
X0284817Y0038926D01*
X0284817Y0041395D01*
X0284200Y0042012D01*
X0282965Y0042012D01*
X0282348Y0041395D01*
X0286031Y0041395D02*
X0286649Y0042012D01*
X0287883Y0042012D01*
X0288500Y0041395D01*
X0288500Y0038926D01*
X0287883Y0038309D01*
X0286649Y0038309D01*
X0286031Y0038926D01*
X0289715Y0039543D02*
X0289715Y0042012D01*
X0292183Y0042012D02*
X0292183Y0039543D01*
X0290949Y0038309D01*
X0289715Y0039543D01*
X0294848Y0038926D02*
X0294848Y0041395D01*
X0295465Y0042012D01*
X0297317Y0042012D01*
X0297317Y0038309D01*
X0295465Y0038309D01*
X0294848Y0038926D01*
X0298531Y0038309D02*
X0298531Y0042012D01*
X0301000Y0042012D02*
X0298531Y0038309D01*
X0301000Y0038309D02*
X0301000Y0042012D01*
X0302215Y0041395D02*
X0302832Y0042012D01*
X0304066Y0042012D01*
X0304683Y0041395D01*
X0304683Y0038926D01*
X0304066Y0038309D01*
X0302832Y0038309D01*
X0302215Y0038926D01*
X0302215Y0040160D01*
X0303449Y0040160D01*
X0259683Y0040895D02*
X0259683Y0038426D01*
X0259066Y0037809D01*
X0257832Y0037809D01*
X0257215Y0038426D01*
X0257215Y0039660D01*
X0258449Y0039660D01*
X0259683Y0040895D02*
X0259066Y0041512D01*
X0257832Y0041512D01*
X0257215Y0040895D01*
X0256000Y0041512D02*
X0253531Y0037809D01*
X0253531Y0041512D01*
X0252317Y0041512D02*
X0250465Y0041512D01*
X0249848Y0040895D01*
X0249848Y0038426D01*
X0250465Y0037809D01*
X0252317Y0037809D01*
X0252317Y0041512D01*
X0256000Y0041512D02*
X0256000Y0037809D01*
X0247183Y0039043D02*
X0245949Y0037809D01*
X0244715Y0039043D01*
X0244715Y0041512D01*
X0243500Y0040895D02*
X0243500Y0038426D01*
X0242883Y0037809D01*
X0241649Y0037809D01*
X0241031Y0038426D01*
X0239817Y0038426D02*
X0239200Y0037809D01*
X0237965Y0037809D01*
X0237348Y0038426D01*
X0237348Y0040895D02*
X0237965Y0041512D01*
X0239200Y0041512D01*
X0239817Y0040895D01*
X0239817Y0038426D01*
X0241031Y0040895D02*
X0241649Y0041512D01*
X0242883Y0041512D01*
X0243500Y0040895D01*
X0247183Y0041512D02*
X0247183Y0039043D01*
M02*
