%
M48
M72
T01C0.0197
T02C0.0276
T03C0.0320
T04C0.0354
T05C0.0380
T06C0.0390
T07C0.0394
T08C0.0400
%
T01
X18833Y8566
X18833Y9566
T02
X16333Y12066
X15333Y12066
X14833Y17566
X15833Y17566
X24333Y2066
X25333Y2066
X28833Y2066
X29833Y2066
T03
X27833Y21066
X27833Y22066
X27833Y23066
X27833Y24066
X27833Y25066
X27833Y26066
X27833Y27066
X27833Y28066
X24833Y28066
X24833Y27066
X24833Y26066
X24833Y25066
X24833Y24066
X24833Y23066
X24833Y22066
X24833Y21066
T04
X29333Y17066
X29333Y16066
X29333Y15066
X30333Y24066
X30333Y28066
T05
X29833Y11066
X28833Y11066
X27833Y11066
X26833Y11066
X25833Y11066
X24833Y11066
X23833Y11066
X22833Y11066
X21833Y11066
X20833Y11066
X19833Y11066
X18833Y11066
X17833Y11066
X17833Y10066
X17833Y9066
X17833Y8066
X17833Y7066
X17833Y6066
X17833Y5066
X18833Y5066
X19833Y5066
X20833Y5066
X21833Y5066
X22833Y5066
X23833Y5066
X24833Y5066
X25833Y5066
X26833Y5066
X27833Y5066
X28833Y5066
X29833Y5066
X30833Y5066
X30833Y11066
X15339Y10285
X14339Y10285
X13339Y10285
X12339Y10285
X13339Y9285
X14339Y9285
X15339Y9285
T06
X12339Y9285
T07
X13333Y20316
X14333Y20316
X15333Y20316
X16333Y20316
X17333Y20316
X17333Y28316
X16333Y28316
X15333Y28316
X14333Y28316
X13333Y28316
T08
X12833Y18066
X11833Y15566
X11833Y14566
X11833Y13566
X13833Y13566
X13833Y14566
X13833Y15566
X16833Y15566
X16833Y14566
X16833Y13566
X17833Y18066
X22333Y3066
X23333Y3066
X24333Y3066
X25333Y3066
X26833Y3066
X27833Y3066
X28833Y3066
X29833Y3066
M30
